<svg width="22" height="18" viewBox="0 0 22 18" fill="none" xmlns="http://www.w3.org/2000/svg">
<path d="M11.8008 9.63768L21.3997 2.23639C21.5591 2.09308 21.6423 1.90874 21.6329 1.72021C21.6234 1.53167 21.5219 1.35283 21.3487 1.21941C21.1755 1.086 20.9433 1.00784 20.6986 1.00056C20.4538 0.993276 20.2145 1.05741 20.0285 1.18013L11.2173 7.96715L2.65895 1.3749C2.47673 1.23538 2.23024 1.15706 1.97331 1.15706C1.71638 1.15706 1.46989 1.23538 1.28767 1.3749C1.19652 1.44454 1.12417 1.5274 1.0748 1.61868C1.02542 1.70997 1 1.80788 1 1.90678C1 2.00567 1.02542 2.10358 1.0748 2.19487C1.12417 2.28616 1.19652 2.36901 1.28767 2.43865L10.6338 9.63768C10.7887 9.75662 10.9985 9.82341 11.2173 9.82341C11.436 9.82341 11.6459 9.75662 11.8008 9.63768Z" fill="#44A0FC" stroke="#44A0FC" stroke-width="0.5"/>
<path d="M11.8009 16.8144L21.3998 9.41315C21.5591 9.26984 21.6424 9.0855 21.6329 8.89696C21.6235 8.70843 21.522 8.52958 21.3488 8.39617C21.1756 8.26276 20.9434 8.1846 20.6987 8.17732C20.4539 8.17003 20.2146 8.23416 20.0285 8.35689L11.2173 15.1439L2.65903 8.55166C2.47681 8.41214 2.23032 8.33382 1.97339 8.33382C1.71646 8.33382 1.46997 8.41214 1.28775 8.55166C1.10661 8.69202 1.00494 8.88188 1.00494 9.07979C1.00494 9.2777 1.10661 9.46756 1.28775 9.60792L10.6338 16.8144C10.7888 16.9334 10.9986 17.0002 11.2173 17.0002C11.4361 17.0002 11.6459 16.9334 11.8009 16.8144Z" fill="#44A0FC" stroke="#44A0FC" stroke-width="0.5"/>
</svg>
