<svg width="57" height="72" viewBox="0 0 57 72" fill="none" xmlns="http://www.w3.org/2000/svg">
<path d="M12.8775 37.452C15.855 38.2125 18.9345 38.9985 24.9975 38.9985C31.0605 38.9985 34.1415 38.2125 37.1205 37.452C40.0485 36.705 42.813 35.9985 48.4995 35.9985C51.0645 35.9985 53.2815 36.1485 55.272 36.4545L57 36.72V0.6855L55.728 0.4905C53.583 0.1605 51.219 0 48.498 0C42.435 0 39.3555 0.786 36.3765 1.5465C33.4485 2.2935 30.684 3 24.9975 3C19.311 3 16.5465 2.2935 13.62 1.5465C10.6425 0.786 7.563 0 1.5 0H0V31.5V36V72H3V36.024C7.6815 36.1365 10.2255 36.774 12.8775 37.452ZM3 3.0165C7.6965 3.129 10.2195 3.774 12.8775 4.452C15.855 5.2125 18.9345 5.9985 24.9975 5.9985C31.0605 5.9985 34.1415 5.2125 37.1205 4.452C40.0485 3.705 42.813 2.9985 48.4995 2.9985C50.532 2.9985 52.344 3.0915 54 3.2835V33.2655C52.3245 33.087 50.508 32.9985 48.4995 32.9985C42.4365 32.9985 39.357 33.7845 36.378 34.545C33.45 35.292 30.6855 35.9985 24.999 35.9985C19.3125 35.9985 16.548 35.292 13.6215 34.545C10.9005 33.8505 8.0925 33.1335 3.0015 33.015V31.4985L3 3.0165Z" fill="#44A0FC"/>
</svg>
