<svg width="77" height="74" viewBox="0 0 77 74" fill="none" xmlns="http://www.w3.org/2000/svg">
<path fill-rule="evenodd" clip-rule="evenodd" d="M27.6208 60.1845H6.53092C3.48067 60.1845 1 57.7026 1 54.6504V6.53402C1 3.48186 3.48067 1 6.53092 1H70.4024C73.4526 1 75.9333 3.48186 75.9333 6.53402V54.6504C75.9333 57.7026 73.4526 60.1845 70.4024 60.1845H49.3125L39.0271 73.0373C38.8892 73.2116 38.6826 73.3066 38.4667 73.3066C38.2507 73.3066 38.0441 73.2116 37.9062 73.0373L27.6208 60.1845ZM38.4667 71.4479L48.4075 59.0175C48.5453 58.8485 48.7474 58.7534 48.9679 58.7534H70.4024C72.6625 58.7534 74.5 56.9158 74.5 54.6504V6.53402C74.5 4.26867 72.6625 2.43103 70.4024 2.43103H6.53092C4.2708 2.43103 2.4333 4.26867 2.4333 6.53402V54.6504C2.4333 56.9158 4.2708 58.7534 6.53092 58.7534H27.9654C28.1859 58.7534 28.388 58.8485 28.5258 59.0175L38.4667 71.4479Z" fill="white" stroke="#44A0FC"/>
<path fill-rule="evenodd" clip-rule="evenodd" d="M48.9667 10.3064H64.7167C65.1104 10.3064 65.4307 9.98617 65.4307 9.59242C65.4307 9.19867 65.1104 8.87842 64.7167 8.87842H48.9667C48.5729 8.87842 48.2527 9.19867 48.2527 9.59242C48.2527 9.98617 48.5729 10.3064 48.9667 10.3064Z" fill="white" stroke="#44A0FC"/>
<path fill-rule="evenodd" clip-rule="evenodd" d="M27.9667 50.8718H12.2167C11.8229 50.8718 11.5026 51.1921 11.5026 51.5858C11.5026 51.9796 11.8229 52.2998 12.2167 52.2998H27.9667C28.3604 52.2998 28.6807 51.9796 28.6807 51.5858C28.6807 51.1921 28.3604 50.8718 27.9667 50.8718Z" fill="white" stroke="#44A0FC"/>
<path fill-rule="evenodd" clip-rule="evenodd" d="M54.0212 15.542H64.5212C64.9167 15.542 65.2387 15.2218 65.2387 14.828C65.2387 14.4343 64.9167 14.114 64.5212 14.114H54.0212C53.6257 14.114 53.3037 14.4343 53.3037 14.828C53.3037 15.2218 53.6257 15.542 54.0212 15.542Z" fill="white" stroke="#44A0FC"/>
<path fill-rule="evenodd" clip-rule="evenodd" d="M22.5197 45.6074H12.0197C11.6242 45.6074 11.3022 45.9277 11.3022 46.3214C11.3022 46.7152 11.6242 47.0354 12.0197 47.0354H22.5197C22.9152 47.0354 23.2372 46.7152 23.2372 46.3214C23.2372 45.9277 22.9152 45.6074 22.5197 45.6074Z" fill="white" stroke="#44A0FC"/>
<path fill-rule="evenodd" clip-rule="evenodd" d="M38.0315 20.4656C34.9113 20.4656 32.3737 23.0033 32.3737 26.1235C32.3737 29.2437 34.9113 31.7814 38.0315 31.7814C41.1518 31.7814 43.6894 29.2437 43.6894 26.1235C43.6894 23.0033 41.1518 20.4656 38.0315 20.4656ZM38.0315 21.9072C40.3618 21.9072 42.2478 23.7932 42.2478 26.1235C42.2478 28.4538 40.3618 30.3397 38.0315 30.3397C35.7012 30.3397 33.8152 28.4538 33.8152 26.1235C33.8152 23.7932 35.7012 21.9072 38.0315 21.9072Z" fill="white" stroke="#44A0FC"/>
<path fill-rule="evenodd" clip-rule="evenodd" d="M54.9896 22.1638C52.87 22.1638 51.1443 23.8895 51.1443 26.0091C51.1443 28.1286 52.87 29.8543 54.9896 29.8543C57.1091 29.8543 58.8348 28.1286 58.8348 26.0091C58.8348 23.8895 57.1091 22.1638 54.9896 22.1638ZM54.9896 23.6019C56.3213 23.6019 57.3967 24.6773 57.3967 26.0091C57.3967 27.3408 56.3213 28.4162 54.9896 28.4162C53.6578 28.4162 52.5824 27.3408 52.5824 26.0091C52.5824 24.6773 53.6578 23.6019 54.9896 23.6019Z" fill="white" stroke="#44A0FC"/>
<path fill-rule="evenodd" clip-rule="evenodd" d="M21.1218 22.1638C19.0023 22.1638 17.2766 23.8895 17.2766 26.0091C17.2766 28.1286 19.0023 29.8543 21.1218 29.8543C23.2414 29.8543 24.9671 28.1286 24.9671 26.0091C24.9671 23.8895 23.2414 22.1638 21.1218 22.1638ZM21.1218 23.6019C22.4536 23.6019 23.529 24.6773 23.529 26.0091C23.529 27.3408 22.4536 28.4162 21.1218 28.4162C19.7901 28.4162 18.7147 27.3408 18.7147 26.0091C18.7147 24.6773 19.7901 23.6019 21.1218 23.6019Z" fill="white" stroke="#44A0FC"/>
<path fill-rule="evenodd" clip-rule="evenodd" d="M27.9806 42.7298C27.9634 42.9285 28.0324 43.1272 28.1707 43.2741C28.3046 43.4167 28.4947 43.5031 28.6934 43.5031H47.3729C47.5716 43.5031 47.7617 43.4167 47.8956 43.2741C48.0338 43.1272 48.1029 42.9285 48.0856 42.7298C47.6882 37.5329 43.3337 33.429 38.0331 33.429C32.7326 33.429 28.3781 37.5329 27.9806 42.7298ZM46.5651 42.0689C45.8782 37.9822 42.3142 34.8632 38.0331 34.8632C33.7521 34.8632 30.1881 37.9822 29.5012 42.0689H46.5651Z" fill="white" stroke="#44A0FC"/>
<path fill-rule="evenodd" clip-rule="evenodd" d="M48.3613 36.5052C48.3477 36.7048 48.416 36.8991 48.5501 37.0468C48.6869 37.1918 48.8756 37.2766 49.0753 37.2766H60.9033C61.103 37.2766 61.2918 37.1918 61.4285 37.0468C61.5626 36.8991 61.6309 36.7048 61.6173 36.5052C61.3519 33.0777 58.4852 30.3723 54.9893 30.3723C51.4934 30.3723 48.6267 33.0777 48.3613 36.5052ZM60.0717 35.8432C59.5383 33.5317 57.4621 31.8057 54.9893 31.8057C52.5165 31.8057 50.4403 33.5317 49.9069 35.8432H60.0717Z" fill="white" stroke="#44A0FC"/>
<path fill-rule="evenodd" clip-rule="evenodd" d="M14.493 36.5052C14.4793 36.7048 14.5477 36.8991 14.6817 37.0468C14.8185 37.1918 15.0073 37.2766 15.2069 37.2766H27.035C27.2347 37.2766 27.4234 37.1918 27.5602 37.0468C27.6942 36.8991 27.7626 36.7048 27.7489 36.5052C27.4836 33.0777 24.6168 30.3723 21.121 30.3723C17.6251 30.3723 14.7583 33.0777 14.493 36.5052ZM26.2034 35.8432C25.67 33.5317 23.5938 31.8057 21.121 31.8057C18.6481 31.8057 16.5719 33.5317 16.0385 35.8432H26.2034Z" fill="white" stroke="#44A0FC"/>
</svg>
