<svg width="74" height="74" viewBox="0 0 74 74" fill="none" xmlns="http://www.w3.org/2000/svg">
<path d="M47.9844 13.2969C51.3576 13.2969 54.5927 14.6369 56.9779 17.0221C59.3631 19.4073 60.7031 22.6424 60.7031 26.0156V47.9844C60.7031 51.3576 59.3631 54.5927 56.9779 56.9779C54.5927 59.3631 51.3576 60.7031 47.9844 60.7031H26.0156C22.6424 60.7031 19.4073 59.3631 17.0221 56.9779C14.6369 54.5927 13.2969 51.3576 13.2969 47.9844V26.0156C13.2969 22.6424 14.6369 19.4073 17.0221 17.0221C19.4073 14.6369 22.6424 13.2969 26.0156 13.2969H47.9844ZM47.9844 8.67188H26.0156C21.42 8.6856 17.0165 10.5173 13.7669 13.7669C10.5173 17.0165 8.6856 21.42 8.67188 26.0156V47.9844C8.6856 52.58 10.5173 56.9835 13.7669 60.2331C17.0165 63.4827 21.42 65.3144 26.0156 65.3281H47.9844C52.58 65.3144 56.9835 63.4827 60.2331 60.2331C63.4827 56.9835 65.3144 52.58 65.3281 47.9844V26.0156C65.3144 21.42 63.4827 17.0165 60.2331 13.7669C56.9835 10.5173 52.58 8.6856 47.9844 8.67188Z" fill="#F5F5F5"/>
<path d="M52.1122 18.5C51.457 18.5 50.8166 18.6943 50.2718 19.0583C49.727 19.4223 49.3024 19.9396 49.0517 20.545C48.801 21.1503 48.7354 21.8163 48.8632 22.4589C48.991 23.1015 49.3065 23.6918 49.7698 24.1551C50.2331 24.6183 50.8234 24.9338 51.466 25.0617C52.1085 25.1895 52.7746 25.1239 53.3799 24.8732C53.9852 24.6224 54.5026 24.1978 54.8666 23.6531C55.2306 23.1083 55.4249 22.4678 55.4249 21.8127C55.4249 21.3776 55.3392 20.9469 55.1727 20.545C55.0062 20.143 54.7622 19.7779 54.4546 19.4703C54.147 19.1626 53.7818 18.9186 53.3799 18.7522C52.978 18.5857 52.5472 18.5 52.1122 18.5Z" fill="#F5F5F5"/>
<path d="M37.1561 26.8655C39.1782 26.8644 41.1551 27.463 42.8369 28.5857C44.5187 29.7084 45.8296 31.3047 46.604 33.1726C47.3783 35.0405 47.5812 37.0961 47.187 39.0794C46.7928 41.0627 45.8192 42.8845 44.3894 44.3143C42.9596 45.7441 41.1378 46.7177 39.1545 47.1119C37.1713 47.5061 35.1156 47.3032 33.2477 46.5289C31.3798 45.7545 29.7835 44.4435 28.6608 42.7618C27.5381 41.08 26.9395 39.103 26.9406 37.081C26.9452 34.3731 28.023 31.7774 29.9377 29.8626C31.8525 27.9478 34.4482 26.8701 37.1561 26.8655ZM37.1561 22.2405C34.2208 22.2462 31.353 23.1219 28.9152 24.757C26.4775 26.392 24.5791 28.713 23.46 31.4267C22.3409 34.1403 22.0514 37.1248 22.628 40.0029C23.2046 42.8811 24.6214 45.5237 26.6994 47.5969C28.7774 49.67 31.4233 51.0807 34.3028 51.6505C37.1823 52.2204 40.1661 51.9239 42.8771 50.7985C45.5881 49.673 47.9047 47.7693 49.534 45.3277C51.1634 42.8861 52.0324 40.0163 52.0312 37.081C52.0305 35.1294 51.645 33.1971 50.8967 31.3947C50.1485 29.5922 49.0522 27.955 47.6706 26.5766C46.289 25.1982 44.6492 24.1058 42.845 23.3618C41.0409 22.6177 39.1077 22.2367 37.1561 22.2405Z" fill="#F5F5F5"/>
</svg>
