<svg width="68" height="67" viewBox="0 0 68 67" fill="none" xmlns="http://www.w3.org/2000/svg">
<path d="M36.0685 32.0281V31.9371C36.0493 31.9679 36.0289 31.9986 36.0085 32.0281H36.0685Z" fill="#F5F5F5"/>
<path d="M59.0905 5.5155H8.57002C6.15195 5.5155 4.19086 7.40166 4.19086 9.72627V60.0865C4.19086 62.4099 6.15195 64.296 8.57002 64.296H59.0905C61.5122 64.296 63.4733 62.4087 63.4733 60.0865V9.72627C63.4733 7.40048 61.511 5.5155 59.0905 5.5155ZM22.1597 54.7223H13.2059V28.1801H22.1597V54.7223ZM17.6834 24.5544H17.6234C14.62 24.5544 12.6769 22.5157 12.6769 19.969C12.6769 17.3654 14.68 15.3836 17.7422 15.3836C20.8055 15.3836 22.6899 17.3654 22.7498 19.969C22.7498 22.5157 20.8043 24.5544 17.6834 24.5544ZM54.4475 54.7223H45.4937V40.5193C45.4937 36.9527 44.1983 34.5181 40.9586 34.5181C38.4853 34.5181 37.0124 36.1597 36.3635 37.7457C36.1272 38.3117 36.0696 39.1035 36.0696 39.8977V54.7211H27.1158C27.1158 54.7211 27.2333 30.6666 27.1158 28.179H36.0696V31.9359C37.2595 30.1277 39.3873 27.5526 44.1407 27.5526C50.0312 27.5526 54.4487 31.3474 54.4487 39.5006L54.4475 54.7223Z" fill="#F5F5F5"/>
</svg>
